<svg xmlns="http://www.w3.org/2000/svg" viewBox="0 0 800 600">
  <rect width="800" height="380" fill="#BEE7F7"/>
  <circle cx="680" cy="80" r="50" fill="#FFF3B0"/>
  <ellipse cx="150" cy="90" rx="60" ry="24" fill="#FFFFFF" opacity="0.9"/>
  <ellipse cx="240" cy="110" rx="45" ry="18" fill="#FFFFFF" opacity="0.9"/>
  <rect y="380" width="800" height="220" fill="#8FBF6A"/>
  <path d="M0 380 Q400 350 800 380 L800 420 L0 420 Z" fill="#7CB05A"/>
  <rect x="0" y="330" width="800" height="60" fill="#9BC7E8"/>
  <path d="M60 340 L740 340 L740 400 L60 400 Z" fill="#C9822B" stroke="#8A5A2B" stroke-width="4"/>
  <path d="M60 340 L740 340" stroke="#8A5A2B" stroke-width="3"/>
  <g stroke="#8A5A2B" stroke-width="8">
    <line x1="60" y1="290" x2="60" y2="400"/>
    <line x1="250" y1="270" x2="250" y2="400"/>
    <line x1="440" y1="260" x2="440" y2="400"/>
    <line x1="630" y1="270" x2="630" y2="400"/>
    <line x1="740" y1="290" x2="740" y2="400"/>
  </g>
  <path d="M60 290 Q250 200 440 260 Q630 200 740 290" fill="none" stroke="#E23B5E" stroke-width="6"/>
  <path d="M60 340 Q250 260 440 310 Q630 260 740 340" fill="none" stroke="#E23B5E" stroke-width="5"/>
  <rect x="150" y="440" width="70" height="16" rx="4" fill="#FFD54A" stroke="#E8A83A" stroke-width="3"/>
  <rect x="580" y="460" width="60" height="16" rx="4" fill="#FFD54A" stroke="#E8A83A" stroke-width="3"/>
</svg>
