<svg xmlns="http://www.w3.org/2000/svg" viewBox="0 0 200 200">
  <rect x="20" y="148" width="135" height="22" rx="8" fill="#3A3A3A"/>
  <g stroke="#1E1E1E" stroke-width="2">
    <line x1="30" y1="148" x2="30" y2="170"/>
    <line x1="45" y1="148" x2="45" y2="170"/>
    <line x1="60" y1="148" x2="60" y2="170"/>
    <line x1="75" y1="148" x2="75" y2="170"/>
    <line x1="90" y1="148" x2="90" y2="170"/>
    <line x1="105" y1="148" x2="105" y2="170"/>
    <line x1="120" y1="148" x2="120" y2="170"/>
    <line x1="135" y1="148" x2="135" y2="170"/>
  </g>
  <rect x="52" y="98" width="72" height="48" rx="7" fill="#F6862C" stroke="#C4600F" stroke-width="4"/>
  <rect x="68" y="108" width="28" height="22" fill="#5FB0E8" stroke="#3A85B8" stroke-width="3"/>
  <rect x="72" y="112" width="10" height="8" fill="#BEE6F7"/>
  <rect x="118" y="108" width="8" height="18" fill="#8A6D3A"/>
  <path d="M118 108 L162 82 L170 93 L128 122 Z" fill="#F6862C" stroke="#C4600F" stroke-width="4" stroke-linejoin="round"/>
  <circle cx="120" cy="112" r="4" fill="#8A6D3A"/>
  <path d="M162 82 L182 92 L172 113 L156 103 Z" fill="#F0A93A" stroke="#C4600F" stroke-width="3" stroke-linejoin="round"/>
  <g stroke="#C4600F" stroke-width="2">
    <line x1="160" y1="105" x2="166" y2="112"/>
    <line x1="168" y1="100" x2="174" y2="107"/>
  </g>
  <ellipse cx="52" cy="159" rx="24" ry="16" fill="#3A3A3A"/>
  <ellipse cx="118" cy="159" rx="24" ry="16" fill="#3A3A3A"/>
  <circle cx="52" cy="159" r="6" fill="#5A5A5A"/>
  <circle cx="118" cy="159" r="6" fill="#5A5A5A"/>
</svg>
