<svg xmlns="http://www.w3.org/2000/svg" viewBox="0 0 200 200">
  <rect x="18" y="88" width="82" height="57" rx="5" fill="#F6C233" stroke="#C99418" stroke-width="4"/>
  <rect x="18" y="88" width="82" height="14" fill="#FFDD70"/>
  <rect x="28" y="58" width="47" height="37" rx="4" fill="#5FB0E8" stroke="#3A85B8" stroke-width="4"/>
  <rect x="33" y="63" width="37" height="18" fill="#BEE6F7"/>
  <circle cx="24" cy="100" r="4" fill="#FFF3B0"/>
  <polygon points="16,147 120,147 100,88 58,88" fill="#F0A93A" stroke="#C77E1D" stroke-width="4" stroke-linejoin="round"/>
  <line x1="70" y1="95" x2="82" y2="140" stroke="#C77E1D" stroke-width="2"/>
  <line x1="90" y1="95" x2="98" y2="140" stroke="#C77E1D" stroke-width="2"/>
  <rect x="104" y="98" width="58" height="47" rx="3" fill="#F6C233" stroke="#C99418" stroke-width="4"/>
  <rect x="104" y="98" width="58" height="12" fill="#FFDD70"/>
  <rect x="164" y="110" width="8" height="20" fill="#8A6D3A"/>
  <circle cx="55" cy="157" r="21" fill="#3A3A3A"/>
  <circle cx="55" cy="157" r="9" fill="#9AA0A6"/>
  <circle cx="55" cy="157" r="3" fill="#5A5A5A"/>
  <circle cx="138" cy="157" r="21" fill="#3A3A3A"/>
  <circle cx="138" cy="157" r="9" fill="#9AA0A6"/>
  <circle cx="138" cy="157" r="3" fill="#5A5A5A"/>
</svg>
